<svg width="200" height="200" viewBox="0 0 200 200" fill="none" xmlns="http://www.w3.org/2000/svg">
<path d="M135.236 150.247H63.8904C62.3251 150.247 61.0005 148.921 61.0005 147.354V99.0137H138.126V147.354C138.126 148.921 136.801 150.247 135.236 150.247Z" fill="#D0D2D3"/>
<path d="M138.126 98.9537L99.5934 73.5781L61.0005 98.9537H138.126Z" fill="#D0D2D3"/>
<path d="M138.126 98.9537L99.5932 73.5781L61.0605 98.9537V147.233C61.0605 148.861 62.3851 150.187 64.0107 150.187H135.236C136.862 150.187 138.186 148.861 138.186 147.233L138.126 98.9537Z" fill="url(#paint0_linear_504_11031)"/>
<path d="M132.526 145.365H66.2382C65.6361 145.365 65.0942 144.822 65.0942 144.219V81.112C65.0942 80.5093 65.6361 79.9668 66.2382 79.9668H132.526C133.128 79.9668 133.67 80.5093 133.67 81.112V144.219C133.67 144.822 133.128 145.365 132.526 145.365Z" fill="#EA5F00"/>
<path d="M109.889 94.8555L97.3053 107.453L91.2244 101.365" stroke="white" stroke-width="3.61647" stroke-miterlimit="10" stroke-linecap="round" stroke-linejoin="round"/>
<path d="M61.9638 150.429C61.9035 150.369 61.8432 150.308 61.7227 150.248C61.7829 150.308 61.9035 150.369 61.9638 150.429Z" fill="#E5E6E7"/>
<path d="M62.1444 150.55C62.0842 150.49 62.0239 150.49 61.9636 150.43C62.0239 150.43 62.0842 150.49 62.1444 150.55Z" fill="#E5E6E7"/>
<path d="M138.125 99.7383L99.5928 125.174L137.463 150.188C137.885 149.706 138.186 149.103 138.186 148.44V99.7383H138.125Z" fill="#E5E6E7"/>
<path d="M61.7227 150.188C61.7227 150.188 61.7227 150.248 61.7227 150.188C61.7829 150.248 61.9033 150.308 61.9635 150.369C62.0237 150.429 62.0839 150.489 62.1441 150.489C62.2043 150.549 62.3247 150.61 62.3849 150.61C62.4451 150.67 62.5054 150.67 62.5656 150.73C62.686 150.79 62.7462 150.79 62.8666 150.851C62.9268 150.851 62.987 150.911 63.0472 150.911C63.2278 150.971 63.4085 150.971 63.5891 150.971H135.657C135.838 150.971 136.018 150.971 136.199 150.911C136.259 150.911 136.319 150.851 136.38 150.851C136.5 150.79 136.621 150.79 136.681 150.73C136.741 150.73 136.801 150.67 136.861 150.61C136.922 150.549 137.042 150.549 137.102 150.489C137.162 150.429 137.223 150.429 137.283 150.369C137.343 150.308 137.403 150.248 137.524 150.188L99.6532 125.174L61.7227 150.188Z" fill="#F0F1F1"/>
<path d="M136.259 150.91C136.199 150.91 136.139 150.97 136.078 150.97C136.199 150.91 136.199 150.91 136.259 150.91Z" fill="#E5E6E7"/>
<path d="M63.5287 150.97C63.3481 150.97 63.1674 150.97 62.9868 150.91C63.2276 150.97 63.3481 150.97 63.5287 150.97Z" fill="#E5E6E7"/>
<path d="M62.8668 150.91C62.7463 150.849 62.6257 150.849 62.5654 150.789C62.686 150.849 62.7463 150.849 62.8668 150.91Z" fill="#E5E6E7"/>
<path d="M136.801 150.67C136.741 150.73 136.681 150.73 136.62 150.79C136.681 150.79 136.741 150.73 136.801 150.67Z" fill="#E5E6E7"/>
<path d="M137.223 150.43C137.162 150.49 137.102 150.55 137.042 150.55C137.102 150.49 137.162 150.43 137.223 150.43Z" fill="#E5E6E7"/>
<path d="M62.3854 150.669C62.3251 150.609 62.2046 150.609 62.1443 150.549C62.2046 150.609 62.2648 150.669 62.3854 150.669Z" fill="#E5E6E7"/>
<path d="M61 99.7383V148.44C61 149.103 61.301 149.706 61.7225 150.188L99.5929 125.174L61 99.7383Z" fill="#E7E7E7"/>
<path d="M62.5658 150.79C62.5056 150.79 62.4453 150.73 62.385 150.67C62.4453 150.73 62.5056 150.79 62.5658 150.79Z" fill="#E5E6E7"/>
<path d="M63.0473 150.97C62.987 150.97 62.9267 150.91 62.8665 150.91C62.9267 150.91 62.987 150.91 63.0473 150.97Z" fill="#E5E6E7"/>
<path d="M137.042 150.549C136.982 150.609 136.861 150.669 136.801 150.669C136.861 150.669 136.922 150.609 137.042 150.549Z" fill="#E5E6E7"/>
<path d="M137.403 150.248C137.343 150.308 137.283 150.369 137.162 150.429C137.283 150.369 137.343 150.308 137.403 150.248Z" fill="#E5E6E7"/>
<path d="M136.139 150.971C135.958 151.031 135.777 151.031 135.597 151.031C135.777 150.971 135.958 150.971 136.139 150.971Z" fill="#E5E6E7"/>
<path d="M136.621 150.789C136.5 150.849 136.44 150.849 136.32 150.91C136.38 150.849 136.5 150.849 136.621 150.789Z" fill="#E5E6E7"/>
<path d="M61.7227 150.188C61.7227 150.188 61.7227 150.248 61.7227 150.188C61.7829 150.248 61.9033 150.308 61.9635 150.369C62.0237 150.429 62.0839 150.489 62.1441 150.489C62.2043 150.549 62.3247 150.61 62.3849 150.61C62.4451 150.67 62.5054 150.67 62.5656 150.73C62.686 150.79 62.7462 150.79 62.8666 150.851C62.9268 150.851 62.987 150.911 63.0472 150.911C63.2278 150.971 63.4085 150.971 63.5891 150.971H135.657C135.838 150.971 136.018 150.971 136.199 150.911C136.259 150.911 136.319 150.851 136.38 150.851C136.5 150.79 136.621 150.79 136.681 150.73C136.741 150.73 136.801 150.67 136.861 150.61C136.922 150.549 137.042 150.549 137.102 150.489C137.162 150.429 137.223 150.429 137.283 150.369C137.343 150.308 137.403 150.248 137.524 150.188L99.6532 125.174L61.7227 150.188Z" fill="url(#paint1_linear_504_11031)"/>
<path d="M138.125 99.7383L99.5928 125.174L137.463 150.188C137.885 149.706 138.186 149.103 138.186 148.44V99.7383H138.125Z" fill="url(#paint2_linear_504_11031)"/>
<path d="M167.745 91.0821C168.714 91.0821 169.5 90.2955 169.5 89.3252C169.5 88.3549 168.714 87.5684 167.745 87.5684C166.776 87.5684 165.99 88.3549 165.99 89.3252C165.99 90.2955 166.776 91.0821 167.745 91.0821Z" fill="#F6833C"/>
<path d="M48.4694 116.654L45.9875 119.139L48.4694 121.623L50.9512 119.139L48.4694 116.654Z" fill="#FAC19D"/>
<path d="M150.712 101.882C151.225 101.882 151.641 101.465 151.641 100.952C151.641 100.438 151.225 100.021 150.712 100.021C150.199 100.021 149.783 100.438 149.783 100.952C149.783 101.465 150.199 101.882 150.712 101.882Z" fill="#EA5F00"/>
<path d="M149.709 82.4869L152.045 80.1484L149.709 77.81L147.373 80.1484L149.709 82.4869Z" fill="#FAC19D"/>
<path d="M44.5526 92.4255H42.3331C41.9718 92.4255 41.6621 92.1155 41.6621 91.7538C41.6621 91.3921 41.9718 91.082 42.3331 91.082H44.5526C44.9139 91.082 45.2236 91.3921 45.2236 91.7538C45.2236 92.1672 44.9139 92.4255 44.5526 92.4255Z" fill="#F8A26D"/>
<path d="M49.4044 92.4255H47.1849C46.8236 92.4255 46.5139 92.1155 46.5139 91.7538C46.5139 91.3921 46.8236 91.082 47.1849 91.082H49.4044C49.7657 91.082 50.0754 91.3921 50.0754 91.7538C50.0754 92.1672 49.7657 92.4255 49.4044 92.4255Z" fill="#F8A26D"/>
<path d="M45.8944 95.9912C45.5331 95.9912 45.2234 95.6812 45.2234 95.3195V93.0975C45.2234 92.7358 45.5331 92.4258 45.8944 92.4258C46.2557 92.4258 46.5654 92.7358 46.5654 93.0975V95.3195C46.5654 95.6812 46.2557 95.9912 45.8944 95.9912Z" fill="#F8A26D"/>
<path d="M45.8944 91.1338C45.5331 91.1338 45.2234 90.8238 45.2234 90.462V88.2401C45.2234 87.8784 45.5331 87.5684 45.8944 87.5684C46.2557 87.5684 46.5654 87.8784 46.5654 88.2401V90.462C46.5654 90.8238 46.2557 91.1338 45.8944 91.1338Z" fill="#F8A26D"/>
<path d="M72.6957 65.5345L74.4506 66.4129C74.6055 66.5163 74.7603 66.6196 74.812 66.7746L75.6894 68.5315C75.7926 68.6865 75.9991 68.6865 76.0507 68.5315L76.9282 66.7746C77.0314 66.6196 77.1346 66.4646 77.2895 66.4129L79.0444 65.5345C79.1993 65.4311 79.1993 65.2244 79.0444 65.1728L77.2895 64.2943C77.1346 64.191 76.9798 64.0876 76.9282 63.9326L76.0507 62.1241C75.9475 61.9691 75.741 61.9691 75.6894 62.1241L74.812 63.881C74.7087 64.036 74.6055 64.191 74.4506 64.2427L72.6957 65.1211C72.5409 65.2244 72.5409 65.4311 72.6957 65.5345Z" fill="#EA5F00"/>
<path d="M120.137 66.6931H117.917C117.556 66.6931 117.246 66.3831 117.246 66.0214C117.246 65.6596 117.556 65.3496 117.917 65.3496H120.137C120.498 65.3496 120.808 65.6596 120.808 66.0214C120.808 66.3831 120.498 66.6931 120.137 66.6931Z" fill="#F8A26D"/>
<path d="M124.988 66.6931H122.769C122.407 66.6931 122.098 66.3831 122.098 66.0214C122.098 65.6596 122.407 65.3496 122.769 65.3496H124.988C125.349 65.3496 125.659 65.6596 125.659 66.0214C125.659 66.3831 125.349 66.6931 124.988 66.6931Z" fill="#F8A26D"/>
<path d="M121.478 70.2588C121.117 70.2588 120.807 69.9487 120.807 69.587V67.3651C120.807 67.0034 121.117 66.6934 121.478 66.6934C121.84 66.6934 122.149 67.0034 122.149 67.3651V69.587C122.149 69.9487 121.84 70.2588 121.478 70.2588Z" fill="#F8A26D"/>
<path d="M121.478 65.4014C121.117 65.4014 120.807 65.0913 120.807 64.7296V62.5077C120.807 62.146 121.117 61.8359 121.478 61.8359C121.84 61.8359 122.149 62.146 122.149 62.5077V64.7296C122.149 65.0913 121.84 65.4014 121.478 65.4014Z" fill="#F8A26D"/>
<path d="M31.4291 93.6649C31.9422 93.6649 32.3582 93.2485 32.3582 92.7348C32.3582 92.2211 31.9422 91.8047 31.4291 91.8047C30.916 91.8047 30.5 92.2211 30.5 92.7348C30.5 93.2485 30.916 93.6649 31.4291 93.6649Z" fill="#EA5F00"/>
<path d="M64.3081 52.2237C64.7927 52.2237 65.1856 51.8304 65.1856 51.3452C65.1856 50.8601 64.7927 50.4668 64.3081 50.4668C63.8235 50.4668 63.4307 50.8601 63.4307 51.3452C63.4307 51.8304 63.8235 52.2237 64.3081 52.2237Z" fill="#EA5F00"/>
<path d="M154.635 117.952L156.39 118.83C156.544 118.933 156.699 119.037 156.751 119.192L157.628 120.949C157.732 121.104 157.938 121.104 157.99 120.949L158.867 119.192C158.97 119.037 159.074 118.882 159.228 118.83L160.983 117.952C161.138 117.848 161.138 117.642 160.983 117.59L159.228 116.711C159.074 116.608 158.919 116.505 158.867 116.35L157.99 114.593C157.886 114.438 157.68 114.438 157.628 114.593L156.751 116.35C156.648 116.505 156.544 116.66 156.39 116.711L154.635 117.59C154.48 117.693 154.48 117.9 154.635 117.952Z" fill="#F6833C"/>
<path d="M47.7911 68.6035C47.7911 69.8953 46.7588 70.9805 45.4168 70.9805C44.1264 70.9805 43.0425 69.947 43.0425 68.6035C43.0425 67.3117 44.0748 66.2266 45.4168 66.2266C46.7588 66.2782 47.7911 67.3117 47.7911 68.6035ZM44.2812 68.6035C44.2812 69.2753 44.7974 69.792 45.4684 69.792C46.1394 69.792 46.6556 69.2753 46.6556 68.6035C46.6556 67.9318 46.1394 67.415 45.4684 67.415C44.7974 67.4667 44.2812 67.9834 44.2812 68.6035Z" fill="#FAC19D"/>
<path d="M100.697 51.3457C100.697 52.6375 99.6643 53.7227 98.3223 53.7227C97.0319 53.7227 95.948 52.6892 95.948 51.3457C95.948 50.0022 96.9803 48.9688 98.3223 48.9688C99.6127 48.9688 100.697 50.0022 100.697 51.3457ZM97.1352 51.3457C97.1352 52.0174 97.6513 52.5342 98.3223 52.5342C98.9933 52.5342 99.5094 52.0174 99.5094 51.3457C99.5094 50.674 98.9933 50.1572 98.3223 50.1572C97.6513 50.1572 97.1352 50.674 97.1352 51.3457Z" fill="#F6833C"/>
<path d="M143.227 59.3708C143.94 59.3708 144.518 58.7924 144.518 58.0789C144.518 57.3655 143.94 56.7871 143.227 56.7871C142.515 56.7871 141.937 57.3655 141.937 58.0789C141.937 58.7924 142.515 59.3708 143.227 59.3708Z" fill="#EA5F00"/>
<defs>
<linearGradient id="paint0_linear_504_11031" x1="99.5774" y1="154.039" x2="99.5774" y2="76.8407" gradientUnits="userSpaceOnUse">
<stop stop-color="#BBBDBF"/>
<stop offset="1" stop-color="#BBBDBF" stop-opacity="0"/>
</linearGradient>
<linearGradient id="paint1_linear_504_11031" x1="82.3499" y1="125.577" x2="102.503" y2="154.326" gradientUnits="userSpaceOnUse">
<stop stop-color="#E5E6E7"/>
<stop offset="0.5883" stop-color="#E5E6E7" stop-opacity="0"/>
</linearGradient>
<linearGradient id="paint2_linear_504_11031" x1="108.858" y1="151.524" x2="129.452" y2="122.145" gradientUnits="userSpaceOnUse">
<stop stop-color="#D1D2D2"/>
<stop offset="0.5883" stop-color="#D0D2D3" stop-opacity="0"/>
</linearGradient>
</defs>
</svg>
