<svg width="200" height="200" viewBox="0 0 200 200" fill="none" xmlns="http://www.w3.org/2000/svg">
<path d="M88.7727 104.947L78.1687 94.0584C77.6685 93.8586 77.1683 93.6588 76.6681 93.459H3.14011C2.03969 93.459 1.03931 94.3581 1.03931 95.4569V117.234C1.03931 118.333 1.93965 119.332 3.14011 119.332H76.6681C77.2683 119.332 77.7685 119.133 78.1687 118.733L88.7727 107.844C89.573 107.045 89.573 105.746 88.7727 104.947ZM80.1694 108.144C79.1691 108.144 78.3688 107.345 78.3688 106.346C78.3688 105.347 79.1691 104.548 80.1694 104.548C81.1698 104.548 81.9701 105.347 81.9701 106.346C81.9701 107.345 81.0698 108.144 80.1694 108.144Z" fill="#EA5F00"/>
<path d="M80.4695 106.346H113.882" stroke="#F6833C" stroke-width="1.1178" stroke-miterlimit="10" stroke-linecap="round" stroke-linejoin="round"/>
<g clip-path="url(#clip0_504_10987)">
<path d="M21.52 107.73V112.49H19V99.9902H27.69V102.49H21.52V105.28H27.52V107.74L21.52 107.73Z" fill="white"/>
<path d="M30.1299 100H34.3899C34.7699 100 35.0999 100 35.3899 100C35.9911 100.017 36.5855 100.132 37.1499 100.34C37.6744 100.531 38.1543 100.827 38.5599 101.21C38.9677 101.6 39.2852 102.074 39.4899 102.6C39.721 103.224 39.833 103.885 39.8199 104.55C39.8565 105.462 39.6272 106.366 39.1599 107.15C38.7254 107.808 38.1061 108.323 37.3799 108.63L40.1099 112.46H37.0299L34.6399 109.06H33.9899H32.6299V112.49H30.1299V100ZM33.2999 106.62H35.2999C35.843 106.622 36.3698 106.434 36.7899 106.09C36.9863 105.9 37.1383 105.668 37.2351 105.413C37.3319 105.157 37.3711 104.883 37.3499 104.61C37.3663 104.333 37.325 104.056 37.2286 103.796C37.1322 103.536 36.9828 103.299 36.7899 103.1C36.3735 102.746 35.8466 102.548 35.2999 102.54H32.6399V106.66L33.2999 106.62Z" fill="white"/>
<path d="M50.95 100V102.49H44.86V105.05H50.86V107.49H44.86V110.05H50.95V112.49H42.28V99.9902L50.95 100Z" fill="white"/>
<path d="M62.46 100V102.49H56.33V105.05H62.33V107.49H56.33V110.05H62.42V112.49H53.75V99.9902L62.46 100Z" fill="white"/>
</g>
<path d="M197.325 107.443L106.09 145.104C105.29 145.404 104.489 144.704 104.69 143.805L112.693 106.444L104.69 68.9823C104.489 68.0833 105.29 67.384 106.09 67.6837L197.325 105.345C198.225 105.744 198.225 107.043 197.325 107.443Z" fill="#E5E6E7"/>
<path d="M194.524 106.644L111.792 112.938L100.488 107.244C99.8875 106.944 99.8875 105.945 100.488 105.645L111.792 99.9512L194.524 106.245C194.824 106.145 194.824 106.544 194.524 106.644Z" fill="#D0D2D3"/>
<path d="M1.23948 139.01L4.04055 140.409C4.34066 140.509 4.54074 140.809 4.64077 141.008L6.14135 143.905C6.24138 144.205 6.64154 144.205 6.74157 143.905L8.24214 141.008C8.34218 140.709 8.6423 140.509 8.84237 140.409L11.7435 138.911C12.0436 138.811 12.0436 138.411 11.7435 138.311L8.84237 136.913C8.54226 136.813 8.34218 136.513 8.24214 136.313L6.74157 133.416C6.64154 133.116 6.24138 133.116 6.14135 133.416L4.64077 136.313C4.54074 136.513 4.34066 136.813 4.04055 136.913L1.13944 138.411C0.939365 138.511 0.939365 138.811 1.23948 139.01Z" fill="#F89A60"/>
<path d="M35.8838 141.633L33.1963 144.316L35.8838 147L38.5713 144.316L35.8838 141.633Z" fill="#FBC8A9"/>
<path d="M28.3498 76.5769C29.7311 76.5769 30.8508 75.4587 30.8508 74.0795C30.8508 72.7002 29.7311 71.582 28.3498 71.582C26.9686 71.582 25.8489 72.7002 25.8489 74.0795C25.8489 75.4587 26.9686 76.5769 28.3498 76.5769Z" fill="#FBC8A9"/>
<path d="M64.5637 74.3773L67.4648 75.8758C67.7649 75.9757 67.965 76.2754 68.065 76.4751L69.5656 79.3722C69.6656 79.6719 70.0658 79.6719 70.1658 79.3722L71.6664 76.4751C71.7664 76.1755 72.0665 75.9757 72.2666 75.8758L75.1677 74.3773C75.4678 74.2774 75.4678 73.8778 75.1677 73.7779L72.2666 72.2795C71.9665 72.1796 71.7664 71.8799 71.6664 71.6801L70.0658 68.883C69.9658 68.5833 69.5656 68.5833 69.4656 68.883L67.965 71.78C67.865 72.0797 67.5648 72.2795 67.3648 72.3794L64.4637 73.8778C64.2636 73.9777 64.2636 74.2774 64.5637 74.3773Z" fill="#F89A60"/>
<path d="M45.6563 56.1967C46.5403 56.1967 47.2569 55.4811 47.2569 54.5984C47.2569 53.7156 46.5403 53 45.6563 53C44.7723 53 44.0557 53.7156 44.0557 54.5984C44.0557 55.4811 44.7723 56.1967 45.6563 56.1967Z" fill="#FCDFCD"/>
<defs>
<clipPath id="clip0_504_10987">
<rect width="43.46" height="12.5" fill="white" transform="translate(19 100)"/>
</clipPath>
</defs>
</svg>
