<svg width="200" height="200" viewBox="0 0 200 200" fill="none" xmlns="http://www.w3.org/2000/svg">
<path d="M51.265 100.501L54.0701 101.899C54.3706 101.998 54.571 102.198 54.6712 102.497L56.0737 105.292C56.1739 105.491 56.5746 105.491 56.6748 105.292L58.0774 102.497C58.1775 102.198 58.4781 101.998 58.6784 101.899L61.4836 100.501C61.6839 100.402 61.6839 100.003 61.4836 99.9027L58.6784 98.5056C58.3779 98.4058 58.1775 98.2062 58.0774 97.9068L56.6748 95.1126C56.5746 94.913 56.1739 94.913 56.0737 95.1126L54.6712 97.9068C54.571 98.2062 54.3706 98.4058 54.0701 98.5056L51.265 99.9027C50.9644 100.003 50.9644 100.402 51.265 100.501Z" fill="#F89A60"/>
<path d="M49.6187 78.7422L47 81.3555L49.6187 83.9687L52.2373 81.3555L49.6187 78.7422Z" fill="#FBC8A9"/>
<path d="M134.316 102.398C135.644 102.398 136.72 101.325 136.72 100.002C136.72 98.6797 135.644 97.6074 134.316 97.6074C132.988 97.6074 131.912 98.6797 131.912 100.002C131.912 101.325 132.988 102.398 134.316 102.398Z" fill="#FBC8A9"/>
<path d="M98.2503 118.066C109.471 118.066 118.688 108.984 118.688 97.7077C118.688 86.4309 109.571 77.3496 98.2503 77.3496C86.9297 77.3496 77.9133 86.5307 77.9133 97.7077C77.9133 108.885 87.0299 118.066 98.2503 118.066Z" fill="#EA5F00"/>
<path d="M92.9302 86.8203H96.8302C97.0502 86.8203 97.3202 86.8203 97.6402 86.8203C97.9602 86.8203 98.2802 86.8203 98.6102 86.8303C98.9402 86.8403 99.2602 86.8503 99.5602 86.8603C99.8702 86.8703 100.12 86.8703 100.33 86.8703C101.21 86.9303 102.02 87.0903 102.75 87.3703C103.49 87.6503 104.13 88.0503 104.67 88.5803C105.21 89.1003 105.63 89.7403 105.93 90.5003C106.23 91.2603 106.38 92.1303 106.38 93.1203C106.38 94.1103 106.23 94.9803 105.93 95.7303C105.63 96.4803 105.21 97.1103 104.67 97.6403C104.13 98.1603 103.49 98.5603 102.75 98.8303C102.01 99.1003 101.2 99.2603 100.33 99.2903C100.14 99.2903 99.9002 99.2903 99.6002 99.3003C99.3002 99.3103 98.9802 99.3103 98.6502 99.3103C98.3102 99.3103 97.9802 99.3103 97.6502 99.3103C97.3202 99.3103 97.0502 99.3103 96.8202 99.3103H95.5302V104.75H92.9202V86.8203H92.9302ZM96.8302 96.6903C97.0502 96.6903 97.3302 96.6903 97.6602 96.6903C97.9902 96.6903 98.3102 96.6903 98.6402 96.6903C98.9702 96.6903 99.2702 96.6903 99.5502 96.6803C99.8302 96.6703 100.03 96.6703 100.14 96.6703C101.24 96.6103 102.13 96.3103 102.79 95.7603C103.45 95.2103 103.79 94.3303 103.79 93.1403C103.79 91.9603 103.46 91.0803 102.79 90.4903C102.13 89.9003 101.24 89.5703 100.14 89.4903C100.03 89.4903 99.8302 89.4903 99.5502 89.4803C99.2702 89.4703 98.9702 89.4603 98.6402 89.4503C98.3102 89.4403 97.9902 89.4403 97.6602 89.4403C97.3302 89.4403 97.0602 89.4403 96.8302 89.4403H95.5402V96.7003H96.8302V96.6903Z" fill="white"/>
<path d="M108.4 91.2109H90.6201V92.2109H108.4V91.2109Z" fill="white"/>
<path d="M108.4 93.9102H90.6201V94.9102H108.4V93.9102Z" fill="white"/>
<path d="M79.4159 55.794C79.4159 55.8938 79.4159 55.8938 79.4159 55.9936C79.7165 59.4864 82.9223 61.9812 86.4287 61.9812H100.454C100.454 61.9812 100.454 61.9812 100.554 61.9812C100.554 61.9812 100.554 61.9812 100.554 61.8814C100.554 61.8814 100.554 61.8814 100.554 61.7816L88.9333 51.403C85.2265 48.2096 79.0152 50.8043 79.4159 55.794Z" stroke="#EA5F00" stroke-width="4.4148" stroke-miterlimit="10"/>
<path d="M121.292 55.794C121.292 55.8938 121.292 55.8938 121.292 55.9936C120.992 59.4864 117.786 61.9812 114.28 61.9812H100.254C100.254 61.9812 100.254 61.9812 100.154 61.9812C100.154 61.9812 100.154 61.9812 100.154 61.8814C100.154 61.8814 100.154 61.8814 100.154 61.7816L111.775 51.403C115.582 48.2096 121.693 50.8043 121.292 55.794Z" stroke="#EA5F00" stroke-width="4.4148" stroke-miterlimit="10"/>
<path d="M130.409 63.7773H51.0645V73.158H130.409V63.7773Z" fill="#E5E6E7"/>
<path d="M149.644 63.7773H130.409V73.158H149.744V63.7773H149.644Z" fill="#D0D2D3"/>
<path d="M130.409 110.281H51.0645V149.8H130.409V110.281Z" fill="#E5E6E7"/>
<path d="M149.644 110.281H130.409V149.999H149.744V110.281H149.644Z" fill="#D0D2D3"/>
<path d="M142.631 83.9351L145.436 85.3322C145.737 85.432 145.937 85.6316 146.037 85.931L147.44 88.7252C147.54 88.9248 147.941 88.9248 148.041 88.7252L149.444 85.931C149.544 85.6316 149.844 85.432 150.045 85.3322L152.85 83.9351C153.05 83.8353 153.05 83.4361 152.85 83.3363L150.045 81.9392C149.744 81.8394 149.544 81.6398 149.444 81.3404L148.041 78.5462C147.941 78.3466 147.54 78.3466 147.44 78.5462L146.037 81.3404C145.937 81.6398 145.737 81.8394 145.436 81.9392L142.631 83.3363C142.431 83.4361 142.431 83.7355 142.631 83.9351Z" fill="#F89A60"/>
<path d="M70.6001 83.4372C71.4301 83.4372 72.1029 82.767 72.1029 81.9403C72.1029 81.1136 71.4301 80.4434 70.6001 80.4434C69.7702 80.4434 69.0974 81.1136 69.0974 81.9403C69.0974 82.767 69.7702 83.4372 70.6001 83.4372Z" fill="#FCDFCD"/>
<path d="M149.644 110.281H130.409V149.999H149.744V110.281H149.644Z" fill="url(#paint0_linear_504_11006)"/>
<defs>
<linearGradient id="paint0_linear_504_11006" x1="140.02" y1="110.307" x2="140.02" y2="149.984" gradientUnits="userSpaceOnUse">
<stop stop-color="#BBBDBF"/>
<stop offset="0.0565128" stop-color="#BBBDBF" stop-opacity="0.9435"/>
<stop offset="1" stop-color="#BBBDBF" stop-opacity="0"/>
</linearGradient>
</defs>
</svg>
