<svg width="200" height="200" viewBox="0 0 200 200" fill="none" xmlns="http://www.w3.org/2000/svg">
<g clip-path="url(#clip0_504_11096)">
<path d="M121.967 150.814H150.98V145.044H121.967V150.814Z" fill="url(#paint0_linear_504_11096)"/>
<path d="M136.865 84.8984C137.82 84.8984 138.736 85.2777 139.411 85.9528C140.086 86.628 140.465 87.5437 140.465 88.4985V102.489C140.465 103.066 140.236 103.619 139.828 104.027C139.42 104.435 138.866 104.665 138.289 104.665H136.859C136.282 104.665 135.728 104.435 135.32 104.027C134.912 103.619 134.683 103.066 134.683 102.489V87.059C134.683 86.4819 134.912 85.9283 135.32 85.5202C135.728 85.1121 136.282 84.8828 136.859 84.8828L136.865 84.8984Z" fill="#F0F1F1"/>
<path d="M58.9248 126.988C58.9248 131.571 63.0161 135.32 68.0152 135.32H135.202C138.096 135.32 140.465 133.144 140.465 130.495V95.6037C140.465 94.9539 140.338 94.3103 140.089 93.7099C139.841 93.1094 139.477 92.5638 139.017 92.1041C138.558 91.6445 138.013 91.2799 137.412 91.0311C136.812 90.7823 136.169 90.6543 135.519 90.6543H64.6017L58.9372 97.8048L58.9248 126.988Z" fill="#D0D2D3"/>
<path d="M58.9248 126.988C58.9248 131.571 63.0161 135.32 68.0152 135.32H135.202C138.096 135.32 140.465 133.144 140.465 130.495V95.6037C140.465 94.9539 140.338 94.3103 140.089 93.7099C139.841 93.1094 139.477 92.5638 139.017 92.1041C138.558 91.6445 138.013 91.2799 137.412 91.0311C136.812 90.7823 136.169 90.6543 135.519 90.6543H64.6017L58.9372 97.8048L58.9248 126.988Z" fill="url(#paint1_linear_504_11096)"/>
<path d="M136.865 100.394C137.338 100.394 137.806 100.487 138.243 100.668C138.68 100.849 139.076 101.114 139.411 101.448C139.745 101.782 140.01 102.179 140.191 102.616C140.372 103.053 140.465 103.521 140.465 103.994V117.984C140.465 118.561 140.236 119.115 139.828 119.523C139.42 119.931 138.866 120.16 138.289 120.16H136.859C136.282 120.16 135.728 119.931 135.32 119.523C134.912 119.115 134.683 118.561 134.683 117.984V102.567C134.683 101.99 134.912 101.436 135.32 101.028C135.728 100.62 136.282 100.391 136.859 100.391L136.865 100.394Z" fill="#F0F1F1"/>
<path d="M135.519 106.149H70.2567V103.444L58.9248 95.5195V142.483C58.9248 147.065 63.0161 150.814 68.0152 150.814H135.202C138.096 150.814 140.465 148.638 140.465 145.986V111.098C140.465 110.448 140.338 109.805 140.089 109.204C139.841 108.604 139.477 108.058 139.017 107.599C138.558 107.139 138.013 106.774 137.412 106.526C136.812 106.277 136.169 106.149 135.519 106.149Z" fill="#E5E6E7"/>
<path d="M72.1222 91.0254H64.7385C61.3046 91.0254 58.5208 93.8092 58.5208 97.2432V144.586C58.5208 148.02 61.3046 150.803 64.7385 150.803H72.1222V91.0254Z" fill="#D0D2D3"/>
<path d="M137.22 106.135H68.6248C63.1812 106.135 58.751 101.372 58.751 95.5181C58.751 89.664 63.1812 84.9043 68.6248 84.9043H137.07V90.6558H68.6248C66.3895 90.6558 64.5024 92.8848 64.5024 95.5243C64.5024 98.1638 66.3895 100.39 68.6248 100.39H137.22V106.135Z" fill="#F0F1F1"/>
<g clip-path="url(#clip1_504_11096)">
<path d="M102.036 105.913C113.357 105.913 122.656 96.7506 122.656 85.3727C122.656 73.9948 113.458 64.832 102.036 64.832C90.6136 64.832 81.5164 74.0955 81.5164 85.3727C81.5164 96.6499 90.7147 105.913 102.036 105.913Z" fill="#EA5F00"/>
<path d="M96.6676 76.4062H100.603C100.825 76.4062 101.097 76.4062 101.42 76.4062C101.743 76.4062 102.066 76.4063 102.399 76.4163C102.731 76.4264 103.054 76.4365 103.357 76.4466C103.67 76.4567 103.922 76.4567 104.134 76.4567C105.022 76.5172 105.839 76.6787 106.576 76.9612C107.322 77.2437 107.968 77.6473 108.513 78.182C109.058 78.7067 109.481 79.3524 109.784 80.1193C110.087 80.8861 110.238 81.7639 110.238 82.7628C110.238 83.7616 110.087 84.6394 109.784 85.3962C109.481 86.1529 109.058 86.7885 108.513 87.3233C107.968 87.848 107.322 88.2515 106.576 88.524C105.829 88.7964 105.012 88.9578 104.134 88.9881C103.942 88.9881 103.7 88.9881 103.397 88.9982C103.095 89.0083 102.772 89.0083 102.439 89.0083C102.096 89.0083 101.763 89.0083 101.43 89.0083C101.097 89.0083 100.825 89.0083 100.592 89.0083H99.2909V94.4971H96.6575V76.4062H96.6676ZM100.603 86.3648C100.825 86.3648 101.107 86.3648 101.44 86.3648C101.773 86.3648 102.096 86.3648 102.429 86.3648C102.762 86.3648 103.064 86.3648 103.347 86.3547C103.629 86.3446 103.831 86.3446 103.942 86.3446C105.052 86.2841 105.95 85.9814 106.616 85.4264C107.282 84.8715 107.625 83.9836 107.625 82.7829C107.625 81.5924 107.292 80.7045 106.616 80.1092C105.95 79.5139 105.052 79.1809 103.942 79.1002C103.831 79.1002 103.629 79.1002 103.347 79.0901C103.064 79.08 102.762 79.0699 102.429 79.0598C102.096 79.0497 101.773 79.0497 101.44 79.0497C101.107 79.0497 100.835 79.0497 100.603 79.0497H99.301V86.3749H100.603V86.3648Z" fill="white"/>
<path d="M112.277 80.8359H94.3372V81.8449H112.277V80.8359Z" fill="white"/>
<path d="M112.277 83.5586H94.3372V84.5676H112.277V83.5586Z" fill="white"/>
</g>
<path d="M140.468 108.346C140.987 108.346 141.501 108.448 141.98 108.646C142.46 108.845 142.895 109.136 143.262 109.503C143.629 109.87 143.92 110.306 144.119 110.785C144.317 111.264 144.42 111.778 144.42 112.297V117.567H140.468V108.346Z" fill="#D95100"/>
<path d="M140.459 139.186C140.459 139.186 114.31 138.054 114.31 124.291H140.459V139.186Z" fill="url(#paint2_linear_504_11096)"/>
<path d="M121.044 117.564H144.42V126.817C144.42 127.931 143.977 129 143.189 129.789C142.4 130.577 141.331 131.02 140.216 131.02H121.044C119.26 131.02 117.548 130.311 116.287 129.049C115.025 127.788 114.316 126.076 114.316 124.292C114.316 122.508 115.025 120.797 116.287 119.535C117.548 118.273 119.26 117.564 121.044 117.564Z" fill="#EA5F00"/>
<path d="M121.538 127.348C123.226 127.348 124.594 125.98 124.594 124.292C124.594 122.605 123.226 121.236 121.538 121.236C119.85 121.236 118.482 122.605 118.482 124.292C118.482 125.98 119.85 127.348 121.538 127.348Z" fill="#C84300"/>
<path d="M131.033 52.9296L132.92 53.8903C133.1 53.9805 133.246 54.1267 133.336 54.3069L134.297 56.1971C134.316 56.235 134.345 56.2668 134.382 56.2891C134.418 56.3113 134.46 56.3231 134.502 56.3231C134.545 56.3231 134.586 56.3113 134.622 56.2891C134.659 56.2668 134.688 56.235 134.707 56.1971L135.668 54.3069C135.758 54.1267 135.904 53.9805 136.084 53.8903L137.972 52.9296C138.01 52.9109 138.042 52.8819 138.064 52.8459C138.086 52.8099 138.098 52.7684 138.098 52.726C138.098 52.6836 138.086 52.6421 138.064 52.6061C138.042 52.5701 138.01 52.5411 137.972 52.5224L136.084 51.5617C135.906 51.4697 135.76 51.3241 135.668 51.1451L134.707 49.2549C134.688 49.217 134.659 49.1852 134.622 49.1629C134.586 49.1407 134.545 49.1289 134.502 49.1289C134.46 49.1289 134.418 49.1407 134.382 49.1629C134.345 49.1852 134.316 49.217 134.297 49.2549L133.336 51.1451C133.244 51.3241 133.099 51.4697 132.92 51.5617L131.033 52.5224C130.994 52.5411 130.962 52.5701 130.94 52.6061C130.918 52.6421 130.906 52.6836 130.906 52.726C130.906 52.7684 130.918 52.8099 130.94 52.8459C130.962 52.8819 130.994 52.9109 131.033 52.9296Z" fill="#F6833C"/>
<path d="M55.5859 68.0242L57.3051 68.9009C57.4685 68.9825 57.6014 69.1144 57.6844 69.277L58.558 70.9963C58.5753 71.031 58.6019 71.0602 58.6348 71.0806C58.6678 71.101 58.7058 71.1119 58.7446 71.1119C58.7833 71.1119 58.8213 71.101 58.8543 71.0806C58.8872 71.0602 58.9138 71.031 58.9311 70.9963L59.8047 69.277C59.8868 69.1137 60.02 68.9816 60.184 68.9009L61.9001 68.0242C61.934 68.0066 61.9624 67.9801 61.9823 67.9474C62.0021 67.9148 62.0126 67.8774 62.0126 67.8392C62.0126 67.801 62.0021 67.7635 61.9823 67.7309C61.9624 67.6983 61.934 67.6717 61.9001 67.6542L60.184 66.7806C60.0204 66.6978 59.8875 66.5649 59.8047 66.4013L58.9373 64.6976C58.9201 64.6629 58.8935 64.6337 58.8605 64.6133C58.8276 64.5929 58.7896 64.582 58.7508 64.582C58.712 64.582 58.674 64.5929 58.6411 64.6133C58.6081 64.6337 58.5815 64.6629 58.5643 64.6976L57.6907 66.4168C57.607 66.5798 57.4743 66.7124 57.3114 66.7961L55.5859 67.6542C55.552 67.6717 55.5236 67.6983 55.5037 67.7309C55.4839 67.7635 55.4734 67.801 55.4734 67.8392C55.4734 67.8774 55.4839 67.9148 55.5037 67.9474C55.5236 67.9801 55.552 68.0066 55.5859 68.0242Z" fill="#F6833C"/>
<path d="M142.872 72.6567C143.725 72.6567 144.417 71.9649 144.417 71.1115C144.417 70.2582 143.725 69.5664 142.872 69.5664C142.018 69.5664 141.326 70.2582 141.326 71.1115C141.326 71.9649 142.018 72.6567 142.872 72.6567Z" fill="#FCDFCD"/>
<path d="M68.4106 50.88L66.564 52.7266L68.4106 54.5732L70.2571 52.7266L68.4106 50.88Z" fill="#F9B185"/>
</g>
<defs>
<linearGradient id="paint0_linear_504_11096" x1="150.98" y1="147.929" x2="121.967" y2="147.929" gradientUnits="userSpaceOnUse">
<stop stop-color="#F0F1F1" stop-opacity="0"/>
<stop offset="1" stop-color="#F0F1F1"/>
</linearGradient>
<linearGradient id="paint1_linear_504_11096" x1="99.6949" y1="135.32" x2="99.6949" y2="90.6543" gradientUnits="userSpaceOnUse">
<stop stop-color="#BBBDBF"/>
<stop offset="0.29" stop-color="#BBBDBF" stop-opacity="0.99"/>
<stop offset="0.44" stop-color="#BBBDBF" stop-opacity="0.95"/>
<stop offset="0.56" stop-color="#BBBDBF" stop-opacity="0.88"/>
<stop offset="0.66" stop-color="#BBBDBF" stop-opacity="0.78"/>
<stop offset="0.75" stop-color="#BBBDBF" stop-opacity="0.65"/>
<stop offset="0.83" stop-color="#BBBDBF" stop-opacity="0.49"/>
<stop offset="0.9" stop-color="#BBBDBF" stop-opacity="0.31"/>
<stop offset="0.97" stop-color="#BBBDBF" stop-opacity="0.09"/>
<stop offset="1" stop-color="#BBBDBF" stop-opacity="0"/>
</linearGradient>
<linearGradient id="paint2_linear_504_11096" x1="127.393" y1="124.291" x2="127.393" y2="139.186" gradientUnits="userSpaceOnUse">
<stop stop-color="#D0D2D3"/>
<stop offset="0.19" stop-color="#D0D2D3" stop-opacity="0.99"/>
<stop offset="0.29" stop-color="#D1D3D4" stop-opacity="0.95"/>
<stop offset="0.37" stop-color="#D2D4D5" stop-opacity="0.89"/>
<stop offset="0.43" stop-color="#D4D6D7" stop-opacity="0.8"/>
<stop offset="0.49" stop-color="#D7D8D9" stop-opacity="0.68"/>
<stop offset="0.54" stop-color="#DADBDC" stop-opacity="0.54"/>
<stop offset="0.59" stop-color="#DDDFE0" stop-opacity="0.37"/>
<stop offset="0.64" stop-color="#E1E2E3" stop-opacity="0.18"/>
<stop offset="0.67" stop-color="#E5E6E7" stop-opacity="0"/>
</linearGradient>
<clipPath id="clip0_504_11096">
<rect width="103" height="108" fill="white" transform="translate(48.5 46)"/>
</clipPath>
<clipPath id="clip1_504_11096">
<rect width="41.0904" height="35.3834" fill="white" transform="translate(81.5164 64.832)"/>
</clipPath>
</defs>
</svg>
