<svg xmlns="http://www.w3.org/2000/svg" width="150" height="47" fill="none"><g clip-path="url(#clip0_2087_1060)"><rect width="150" height="46.084" y=".084" fill="#000" rx="8"/><path fill="#000" d="M47 5.916h95v34H47z"/><g clip-path="url(#clip1_2087_1060)"><path fill="#fff" d="M55.682 30.502H50.49l-1.27 3.508h-2.287l5.083-13.094h2.158l5.2 13.094H56.98l-1.298-3.508zm-4.537-1.776h3.87l-1.388-3.75a27.7 27.7 0 0 1-.563-1.716 57.69 57.69 0 0 1-.545 1.698l-1.374 3.768zm9.264-2.081c0-.722-.023-1.518-.07-2.387h2.075c.078.411.132.826.162 1.243.859-.947 1.843-1.42 2.954-1.42a3.308 3.308 0 0 1 1.869.542c.555.365.99.888 1.25 1.503.338.71.507 1.61.507 2.698a6.724 6.724 0 0 1-.579 2.918 4.15 4.15 0 0 1-1.615 1.835 4.574 4.574 0 0 1-2.4.625 5.835 5.835 0 0 1-1.935-.336v4.021l-2.211.19-.007-11.432zm5.814 4.983c.45-.61.676-1.504.676-2.68 0-1.09-.187-1.88-.56-2.37a1.785 1.785 0 0 0-1.49-.738 2.395 2.395 0 0 0-1.19.308 4.501 4.501 0 0 0-1.039.822v5.223c.246.117.505.203.77.258.286.062.577.094.868.094.861 0 1.516-.306 1.965-.917zm4.344-4.983c0-.722-.024-1.518-.072-2.387h2.077c.078.41.132.826.16 1.243.861-.947 1.846-1.42 2.954-1.42a3.31 3.31 0 0 1 1.87.542c.556.364.991.888 1.251 1.503.335.71.504 1.61.505 2.698a6.725 6.725 0 0 1-.577 2.918 4.153 4.153 0 0 1-1.617 1.835 4.562 4.562 0 0 1-2.398.625 5.836 5.836 0 0 1-1.935-.336v4.021l-2.218.197V26.645zm5.814 4.983c.45-.61.676-1.504.676-2.68 0-1.09-.187-1.88-.56-2.37a1.783 1.783 0 0 0-1.49-.738 2.393 2.393 0 0 0-1.19.308c-.385.22-.735.497-1.039.822v5.223c.245.117.503.203.769.258.285.062.577.094.869.094.863 0 1.52-.306 1.969-.917h-.004zm7.106 1.762a5.394 5.394 0 0 1-2.203-2.291c-.513-.995-.769-2.17-.769-3.524 0-1.47.293-2.719.88-3.745a5.723 5.723 0 0 1 2.412-2.309 7.471 7.471 0 0 1 3.423-.773 9.143 9.143 0 0 1 4.029.93l-.565 1.718a7.753 7.753 0 0 0-3.365-.849 4.673 4.673 0 0 0-2.368.583 3.951 3.951 0 0 0-1.584 1.712 6.073 6.073 0 0 0-.563 2.73 6.674 6.674 0 0 0 .433 2.486c.272.7.75 1.3 1.37 1.718.623.42 1.41.63 2.358.632.432 0 .863-.036 1.29-.108a6.697 6.697 0 0 0 1.208-.317v-2.655h-2.99v-1.742h5.145v5.506a11.46 11.46 0 0 1-2.33.804c-.798.184-1.614.278-2.432.279a6.836 6.836 0 0 1-3.38-.785zm16.107.62a8.548 8.548 0 0 1-.151-1.293c-.37.434-.823.788-1.33 1.044a3.924 3.924 0 0 1-1.85.428 3.465 3.465 0 0 1-1.516-.328 2.533 2.533 0 0 1-1.087-.995 3.067 3.067 0 0 1-.4-1.621 2.808 2.808 0 0 1 1.012-2.265c.675-.562 1.8-.844 3.375-.845.588 0 1.176.042 1.759.128v-.19c0-.862-.182-1.47-.546-1.822-.363-.353-.886-.53-1.567-.533a6.09 6.09 0 0 0-1.513.208c-.484.12-.955.287-1.407.497l-.352-1.627a8.404 8.404 0 0 1 1.558-.497 8.91 8.91 0 0 1 2.041-.226c.728-.02 1.453.11 2.129.384a2.8 2.8 0 0 1 1.37 1.32c.329.622.493 1.461.493 2.516v3.877c0 .403.023 1.014.072 1.835l-2.09.005zm-1.32-1.806a3.54 3.54 0 0 0 1.128-.831v-1.81c-.49-.059-.982-.092-1.476-.1-.912 0-1.543.15-1.893.448a1.495 1.495 0 0 0-.527 1.206c0 .483.126.838.38 1.065a1.47 1.47 0 0 0 1.034.356c.47-.007.934-.121 1.355-.334zm5.264-.534V20.147l2.203-.177v11.304c0 .416.07.712.209.888a.818.818 0 0 0 .669.257 2.48 2.48 0 0 0 .58-.099l.261 1.598a3.84 3.84 0 0 1-.766.203c-.282.05-.568.075-.855.076-1.534-.005-2.301-.846-2.301-2.525zm5.507 0V20.147l2.2-.177v11.304c0 .416.071.712.211.888a.804.804 0 0 0 .667.258c.197-.01.393-.044.583-.1l.258 1.598a3.798 3.798 0 0 1-.765.203c-.283.05-.569.075-.855.076-1.534-.005-2.301-.846-2.299-2.525zm13.086-2.25h-6.32c.102 2.041 1.066 3.063 2.892 3.063a6.147 6.147 0 0 0 1.391-.167c.467-.11.924-.26 1.365-.448l.484 1.527a8.169 8.169 0 0 1-3.643.794c-1.026 0-1.892-.195-2.597-.586a3.76 3.76 0 0 1-1.583-1.69 6.057 6.057 0 0 1-.528-2.664 6.332 6.332 0 0 1 .563-2.783 4.124 4.124 0 0 1 1.571-1.776 4.367 4.367 0 0 1 2.322-.615c.913 0 1.675.216 2.287.647a3.845 3.845 0 0 1 1.36 1.72c.302.759.45 1.57.436 2.387v.59zm-2.158-1.422c-.041-.778-.236-1.36-.581-1.75a1.775 1.775 0 0 0-1.388-.582 1.844 1.844 0 0 0-1.407.588c-.373.391-.616.972-.73 1.744h4.106zm3.939-1.291c0-.536-.024-1.353-.071-2.449h2.068c.036.272.07.595.103.972.034.376.055.683.067.918a7.93 7.93 0 0 1 .757-1.08 3.05 3.05 0 0 1 .867-.71 2.285 2.285 0 0 1 1.133-.276c.297-.006.593.03.879.108l-.277 1.935a2.389 2.389 0 0 0-.716-.1c-.484-.01-.96.13-1.362.402a5.55 5.55 0 0 0-1.244 1.323v6.264h-2.204v-7.307zm7.126 11.292a5.426 5.426 0 0 1-.795-.194l.401-1.627a6.1 6.1 0 0 0 .565.121c.213.038.428.059.644.06.978 0 1.712-.635 2.203-1.907l.142-.355-3.562-9.832h2.373l1.789 5.495c.233.707.422 1.428.565 2.16.166-.711.363-1.416.591-2.116l1.815-5.546h2.227l-3.551 9.878a10.143 10.143 0 0 1-1.084 2.259c-.346.533-.818.97-1.374 1.273a4.076 4.076 0 0 1-1.912.416 6.005 6.005 0 0 1-1.037-.085zM46.926 8.178h3.988l-.112.972h-2.708v1.882h2.553v.911h-2.553v2.087h2.852l-.098.98h-3.922V8.178zm6.736 3.346-2.095-3.346h1.328l1.425 2.458 1.5-2.458h1.292l-2.086 3.304 2.258 3.529H55.93l-1.613-2.69-1.642 2.69h-1.284l2.271-3.487zm4.474-3.346h1.823c.857 0 1.513.178 1.968.533.455.355.682.865.68 1.53.009.415-.098.826-.309 1.184-.204.336-.5.606-.853.778a2.807 2.807 0 0 1-1.258.27 4.934 4.934 0 0 1-.88-.095v2.633H58.14l-.003-6.833zm2.93 3.051a1.234 1.234 0 0 0 .374-.964c0-.423-.127-.726-.38-.911-.254-.187-.628-.279-1.12-.279h-.632v2.426a4.6 4.6 0 0 0 .673.071 1.57 1.57 0 0 0 1.086-.343zm2.698-3.051h1.173v5.824h2.8l-.098 1.008h-3.87l-.005-6.832zm5.747 6.499a2.83 2.83 0 0 1-1.135-1.206 3.938 3.938 0 0 1-.394-1.805 4.065 4.065 0 0 1 .42-1.89c.27-.526.69-.959 1.206-1.242a3.748 3.748 0 0 1 1.858-.44c.613-.018 1.22.13 1.759.425.486.279.879.697 1.128 1.203.268.558.4 1.172.387 1.792a4.083 4.083 0 0 1-.423 1.91 2.97 2.97 0 0 1-1.205 1.244c-.566.303-1.2.455-1.842.439a3.472 3.472 0 0 1-1.759-.43zm3.03-.839c.329-.224.584-.543.733-.914.169-.424.251-.877.243-1.334a3.727 3.727 0 0 0-.215-1.313 1.952 1.952 0 0 0-.686-.916 2.021 2.021 0 0 0-1.215-.343 2.053 2.053 0 0 0-1.207.347c-.33.232-.588.555-.743.93a3.253 3.253 0 0 0-.248 1.286c-.007.453.072.903.234 1.325.142.373.39.695.715.925.352.237.77.356 1.192.341.422.013.838-.104 1.193-.334h.004zm3.502-5.66h2.111c.772 0 1.358.156 1.76.467a1.597 1.597 0 0 1 .596 1.336c.007.331-.067.66-.215.955a2.15 2.15 0 0 1-.528.673 2.414 2.414 0 0 1-.654.388l2.08 3.019h-1.355l-1.76-2.709h-.86v2.704H76.05l-.007-6.833zm1.832 3.232c.26.006.518-.051.752-.166.212-.105.389-.27.51-.473a1.34 1.34 0 0 0 .177-.71.88.88 0 0 0-.322-.753 1.568 1.568 0 0 0-.94-.238h-.846v2.34h.669zm4.241-3.232h3.987l-.113.972h-2.706v1.882h2.551v.911h-2.55v2.087h2.85l-.098.98h-3.92V8.178zm8.33 0h1.17v6.832h-1.17V8.178zm4.252.986H92.6l.104-.986h5.267l-.107.986h-1.997v5.847h-1.168V9.163zm8.342 5.513a2.85 2.85 0 0 1-1.134-1.206 3.936 3.936 0 0 1-.393-1.805 4.052 4.052 0 0 1 .419-1.89 2.96 2.96 0 0 1 1.205-1.243 3.757 3.757 0 0 1 1.858-.44c.613-.016 1.22.13 1.759.426.486.279.878.697 1.126 1.203.269.557.402 1.172.389 1.792a4.065 4.065 0 0 1-.424 1.91c-.27.527-.69.96-1.205 1.244-.566.304-1.2.456-1.84.44a3.474 3.474 0 0 1-1.76-.431zm3.03-.839c.33-.224.587-.542.737-.914a3.46 3.46 0 0 0 .243-1.334 3.712 3.712 0 0 0-.217-1.313 1.924 1.924 0 0 0-.686-.916 2.013 2.013 0 0 0-1.215-.343 2.055 2.055 0 0 0-1.207.347 2.128 2.128 0 0 0-.743.93 3.257 3.257 0 0 0-.248 1.286c-.007.453.072.903.234 1.325.143.373.392.695.716.925.351.236.766.356 1.188.341a2.08 2.08 0 0 0 1.198-.334zm3.506-5.66h1.342l3.343 5.294a25.195 25.195 0 0 1-.042-1.392V8.173h1.085v6.837h-1.3l-3.394-5.38a31.8 31.8 0 0 1 .051 1.624v3.756h-1.085V8.178z"/><path fill="#C8102E" fill-rule="evenodd" d="M30.518 8.123h-12.49c-5.884 0-8.033 2.172-8.033 8.11v12.609c0 5.937 2.15 8.109 8.032 8.109h12.49c5.882 0 8.037-2.172 8.037-8.11V16.233c-.005-5.937-2.155-8.109-8.036-8.109z" clip-rule="evenodd"/><path fill="#fff" d="M15.652 22.537h.759v3.768h-.759v-1.53h-1.71v1.53h-.756v-3.768h.756v1.52h1.71v-1.52zm4.268 2.158c0 .612-.302.94-.85.94-.547 0-.853-.336-.853-.967v-2.131h-.756v2.156c0 1.066.582 1.668 1.6 1.668 1.02 0 1.616-.62 1.616-1.7V22.53h-.757v2.165zm8.752.433-.846-2.591h-.619l-.848 2.591-.829-2.59h-.807l1.302 3.767h.626l.85-2.473.848 2.473h.633l1.298-3.766h-.784l-.824 2.59zm2.97-.444h1.378v-.686h-1.378v-.772h2v-.686h-2.748v3.764h2.815v-.688h-2.067v-.932zm2.975 1.616h.748v-3.763h-.748V26.3zm-12.443-.781-.338.785h-.774l1.645-3.767h.668l1.638 3.767h-.793l-.336-.785h-1.71zm.281-.679h1.14l-.575-1.35-.565 1.35zm1.819-7.1a4.727 4.727 0 0 1-3.358-1.404 4.819 4.819 0 0 1-1.392-3.391h.672a4.157 4.157 0 0 0 1.165 2.968 4.05 4.05 0 0 0 5.832 0 4.123 4.123 0 0 0 1.165-2.968h.671a4.798 4.798 0 0 1-1.393 3.393 4.748 4.748 0 0 1-1.542 1.038 4.71 4.71 0 0 1-1.82.364z"/></g></g></svg>