<svg xmlns="http://www.w3.org/2000/svg" width="150" height="47" fill="none"><rect width="150" height="46.084" y=".063" fill="#000" rx="8"/><path fill="#fff" d="M47.324 10.047h1.877c.348 0 .692.011 1.008.037.319.021.634.077.941.166.303.087.59.22.854.391.289.198.546.44.762.714.559.712.851 1.597.826 2.502 0 .444-.066.885-.196 1.309-.135.42-.346.812-.623 1.155a3.455 3.455 0 0 1-1.622 1.11 4.318 4.318 0 0 1-.944.185c-.328.028-.665.042-1.013.042h-1.877l.007-7.611zm1.057 1.059v5.493h.82c.276 0 .54 0 .793-.023a3.95 3.95 0 0 0 .732-.114c.23-.059.451-.15.655-.272.22-.137.413-.312.57-.518.198-.237.349-.51.446-.802a3.21 3.21 0 0 0 .147-1.018 3.181 3.181 0 0 0-.154-1.029 2.474 2.474 0 0 0-.439-.802 2.2 2.2 0 0 0-.57-.53 2.36 2.36 0 0 0-.653-.267 3.8 3.8 0 0 0-.724-.1c-.254 0-.517-.018-.794-.018h-.829zm5.793 3.974a2.806 2.806 0 0 1 .2-1.067c.13-.314.317-.602.552-.848a2.552 2.552 0 0 1 2.88-.583c.311.137.591.335.824.583a2.758 2.758 0 0 1 .755 1.926 2.682 2.682 0 0 1-1.604 2.478 2.548 2.548 0 0 1-2.015-.011 2.636 2.636 0 0 1-1.384-1.42 2.764 2.764 0 0 1-.208-1.059zm2.598 1.699c.217 0 .43-.042.63-.125.194-.08.369-.2.515-.35a1.763 1.763 0 0 0 .482-1.235 1.788 1.788 0 0 0-.482-1.24 1.576 1.576 0 0 0-1.768-.366c-.197.085-.374.21-.521.365a1.67 1.67 0 0 0-.344.548 1.878 1.878 0 0 0-.125.694c-.003.237.04.473.125.694a1.549 1.549 0 0 0 .858.89c.2.083.414.125.63.125zm2.848-4.365h1.01l1.155 3.757 1.008-3.757h.903l1.043 3.78 1.153-3.78h1.009l-1.673 5.244h-.923l-1.041-3.64-1.02 3.64h-.94l-1.684-5.244zm9.175.072.049.878c.16-.31.408-.568.71-.742.284-.154.602-.233.924-.231a2.113 2.113 0 0 1 1.302.412 1.908 1.908 0 0 1 .658.934c.097.284.156.581.174.883.019.322.028.668.028 1.04v1.997h-.972v-2.564c0-.124 0-.23-.018-.319a2.037 2.037 0 0 0-.035-.256 1.524 1.524 0 0 0-.44-.893 1.236 1.236 0 0 0-.907-.333 1.32 1.32 0 0 0-.923.34 1.51 1.51 0 0 0-.425.863 3.15 3.15 0 0 0-.046.427c0 .157-.016.368-.023.63v2.105h-.993v-5.171h.937zm6.019 5.172h-1.01v-7.611h1.01v7.61zm.889-2.578a2.734 2.734 0 0 1 .755-1.914 2.54 2.54 0 0 1 2.877-.584c.31.138.592.336.826.583a2.775 2.775 0 0 1 .752 1.926 2.685 2.685 0 0 1-.77 1.907 2.633 2.633 0 0 1-.838.56 2.55 2.55 0 0 1-2.017 0 2.613 2.613 0 0 1-1.39-1.42 2.722 2.722 0 0 1-.195-1.059zm2.6 1.698a1.592 1.592 0 0 0 1.496-1.014c.088-.22.132-.457.129-.694a1.77 1.77 0 0 0-.48-1.244 1.584 1.584 0 0 0-1.775-.363 1.61 1.61 0 0 0-.517.363 1.71 1.71 0 0 0-.344.548 1.874 1.874 0 0 0-.124.694c-.003.237.039.472.124.693.08.201.196.385.344.541a1.614 1.614 0 0 0 1.147.476zm3.381-1.724c-.005-.379.06-.755.192-1.11.115-.312.29-.6.514-.846a2.362 2.362 0 0 1 2.73-.48c.288.152.539.367.732.63l.034-.737h.923v5.149h-.923l-.046-.694v-.07c-.195.257-.442.47-.725.625a2.18 2.18 0 0 1-1.068.243c-.32 0-.636-.073-.923-.215a2.334 2.334 0 0 1-.752-.583 2.632 2.632 0 0 1-.499-.862 3.011 3.011 0 0 1-.19-1.05zm1.01 0a1.97 1.97 0 0 0 .125.721c.076.198.19.378.337.53a1.507 1.507 0 0 0 1.092.442c.213.002.424-.037.623-.114.189-.073.36-.184.505-.326.15-.153.265-.335.34-.536.086-.232.128-.478.124-.726a1.945 1.945 0 0 0-.124-.72 1.585 1.585 0 0 0-.34-.533 1.455 1.455 0 0 0-.505-.34 1.642 1.642 0 0 0-1.22 0 1.477 1.477 0 0 0-.495.34c-.146.152-.26.332-.337.53a1.98 1.98 0 0 0-.124.732zm5.198-.002c-.005-.378.06-.755.192-1.11.115-.312.29-.6.514-.846a2.343 2.343 0 0 1 2.719-.48c.286.149.535.36.729.62v-3.19h.962v7.612h-.923l-.048-.726v-.046c-.195.256-.44.469-.723.624a2.18 2.18 0 0 1-1.068.243c-.32 0-.636-.073-.923-.215a2.334 2.334 0 0 1-.753-.583 2.63 2.63 0 0 1-.496-.862 3.01 3.01 0 0 1-.182-1.04zm2.564 1.69c.211.003.421-.035.618-.11a1.456 1.456 0 0 0 .854-.863c.088-.232.13-.478.125-.726a1.902 1.902 0 0 0-.125-.719 1.521 1.521 0 0 0-.344-.534 1.496 1.496 0 0 0-.51-.342 1.613 1.613 0 0 0-1.216 0 1.472 1.472 0 0 0-.498.34c-.15.151-.269.332-.347.531a1.98 1.98 0 0 0-.124.724c-.004.246.038.49.124.721a1.537 1.537 0 0 0 .838.867c.193.076.398.113.605.111zm6.314-1.662a2.764 2.764 0 0 1 .203-1.067c.133-.315.324-.603.563-.848a2.54 2.54 0 0 1 2.878-.583c.307.139.584.337.814.583.237.25.424.541.552.86.135.339.204.7.201 1.066a2.69 2.69 0 0 1-.771 1.907 2.64 2.64 0 0 1-.831.571 2.545 2.545 0 0 1-2.017 0 2.62 2.62 0 0 1-1.39-1.42 2.72 2.72 0 0 1-.202-1.07zm2.612 1.698a1.593 1.593 0 0 0 1.496-1.014 1.77 1.77 0 0 0 .129-.694 1.77 1.77 0 0 0-.48-1.244 1.585 1.585 0 0 0-1.775-.363 1.597 1.597 0 0 0-.524.372c-.148.16-.265.345-.344.548a1.879 1.879 0 0 0-.124.694c-.003.237.039.472.124.693a1.561 1.561 0 0 0 .86.883c.203.085.42.127.638.125zm4.426-4.292.049.878c.161-.31.408-.568.711-.742a1.92 1.92 0 0 1 .923-.231 2.11 2.11 0 0 1 1.299.411c.158.12.296.264.409.428.111.154.199.324.26.504.098.286.157.584.173.886.019.32.03.668.03 1.04v1.997h-.973v-2.122c0-.171 0-.317-.012-.442-.012-.124 0-.23-.016-.319a2.471 2.471 0 0 0-.037-.256 1.538 1.538 0 0 0-.434-.893 1.249 1.249 0 0 0-.909-.333 1.33 1.33 0 0 0-.923.34 1.51 1.51 0 0 0-.439.863 3.415 3.415 0 0 0-.048.427c0 .157-.016.368-.023.63v2.105h-.986v-5.171h.946zm9.271.911v1.949c0 .333 0 .617.03.85a.524.524 0 0 0 .279.463.74.74 0 0 0 .284.06c.203-.004.403-.057.581-.155l.476.795a2.222 2.222 0 0 1-.63.275 2.54 2.54 0 0 1-.582.072 1.346 1.346 0 0 1-1.281-.832 2.032 2.032 0 0 1-.124-.555 9.16 9.16 0 0 1-.03-.874v-2.048h-.628v-.969h.621v-1.487h.997v1.487h1.412v.969h-1.405zm2.73-3.35h.974v3.317a1.81 1.81 0 0 1 .717-.742c.284-.152.601-.232.923-.23a2.095 2.095 0 0 1 1.288.411c.158.12.296.264.409.427.109.156.197.326.263.504.098.286.156.584.173.886.018.321.03.668.03 1.04v1.998h-.986v-2.123c0-.17 0-.316-.011-.441-.012-.125-.014-.231-.019-.32a1.582 1.582 0 0 0-.03-.256 1.509 1.509 0 0 0-.42-.892 1.253 1.253 0 0 0-.923-.333 1.32 1.32 0 0 0-.923.34 1.45 1.45 0 0 0-.427.862 3.897 3.897 0 0 0-.067.594c-.004.127 0 .275-.011.446-.012.171 0 .37 0 .602v1.52h-.974l.014-7.61zm5.744 4.968c-.002-.359.06-.715.185-1.052a2.443 2.443 0 0 1 1.336-1.426 2.628 2.628 0 0 1 1.068-.209 2.429 2.429 0 0 1 1.846.821c.233.266.411.574.524.909.125.372.176.764.148 1.156l-.012.231h-4.05c.035.21.108.41.215.594.093.165.218.31.367.428a1.635 1.635 0 0 0 .997.347 2.17 2.17 0 0 0 1.057-.204 3 3 0 0 0 .794-.57l.523.774a9.19 9.19 0 0 1-.433.349c-.162.12-.335.224-.517.31a3.035 3.035 0 0 1-.642.215 3.887 3.887 0 0 1-.805.076 2.638 2.638 0 0 1-1.002-.206 2.48 2.48 0 0 1-.824-.548 2.602 2.602 0 0 1-.56-.855 2.928 2.928 0 0 1-.215-1.14zm1.045-.44h3.026a1.485 1.485 0 0 0-.48-.924 1.551 1.551 0 0 0-1.039-.37 1.576 1.576 0 0 0-1.001.347 1.335 1.335 0 0 0-.506.952v-.004zM52.374 22.18h2.093l5.578 13.152h-2.626l-.676-1.643h-6.647l-.676 1.643h-2.626l5.58-13.152zm-1.313 9.167h4.717L53.419 25.5l-2.358 5.847zm13.117-4.94v.534a3.27 3.27 0 0 1 1.036-.585 4.508 4.508 0 0 1 3.088.122c.513.222.974.548 1.354.957.397.432.703.938.903 1.49.224.622.335 1.28.328 1.941a4.84 4.84 0 0 1-.328 1.778 4.562 4.562 0 0 1-.903 1.45 4.33 4.33 0 0 1-1.354.975 3.955 3.955 0 0 1-1.683.359 4.196 4.196 0 0 1-1.405-.215 3.029 3.029 0 0 1-1.036-.606v5.241h-2.18V26.407h2.18zm0 4.418c-.007.358.056.715.184 1.05.11.278.274.533.483.748.196.201.432.359.692.463.265.101.547.153.83.152a2.122 2.122 0 0 0 1.582-.647 2.4 2.4 0 0 0 .634-1.757 2.527 2.527 0 0 0-.634-1.766 2.05 2.05 0 0 0-1.581-.694 2.15 2.15 0 0 0-1.523.627 2.376 2.376 0 0 0-.483.77 2.87 2.87 0 0 0-.184 1.054zm11.148-4.418v.534a3.271 3.271 0 0 1 1.036-.585 4.509 4.509 0 0 1 3.088.122 4.05 4.05 0 0 1 1.355.957c.396.432.703.938.902 1.49.226.621.337 1.28.328 1.941a4.79 4.79 0 0 1-.328 1.778 4.563 4.563 0 0 1-.902 1.45c-.384.41-.845.741-1.355.975a3.955 3.955 0 0 1-1.682.359 4.196 4.196 0 0 1-1.406-.215 3.03 3.03 0 0 1-1.036-.606v5.241h-2.174V26.407h2.174zm0 4.418a2.78 2.78 0 0 0 .185 1.05c.11.278.274.533.482.748.196.202.432.36.693.463.264.101.545.153.828.152a2.122 2.122 0 0 0 1.58-.647 2.39 2.39 0 0 0 .635-1.757 2.518 2.518 0 0 0-.634-1.766 2.05 2.05 0 0 0-1.581-.694 2.126 2.126 0 0 0-.828.164c-.26.104-.497.262-.693.463a2.376 2.376 0 0 0-.482.77 2.87 2.87 0 0 0-.185 1.054zm14.216 2.813 1.334-1.87a7.657 7.657 0 0 0 1.825 1.12c.602.232 1.244.34 1.888.317a3.06 3.06 0 0 0 1.64-.42 1.243 1.243 0 0 0 .617-1.099 1.157 1.157 0 0 0-.288-.781c-.2-.226-.434-.42-.693-.576a4.825 4.825 0 0 0-.851-.411 26.46 26.46 0 0 1-.76-.287 40.645 40.645 0 0 1-1.56-.596 5.51 5.51 0 0 1-1.343-.77 3.72 3.72 0 0 1-.944-1.11 3.292 3.292 0 0 1-.357-1.619c.001-.446.096-.887.277-1.294.195-.438.478-.831.83-1.156.402-.37.873-.656 1.385-.844a5.39 5.39 0 0 1 1.939-.319 6.75 6.75 0 0 1 1.444.146 6.439 6.439 0 0 1 2.802 1.334l-1.274 1.81a2.846 2.846 0 0 0-.542-.33 9.942 9.942 0 0 0-.739-.317 5.954 5.954 0 0 0-.842-.257 3.688 3.688 0 0 0-.85-.104 3.24 3.24 0 0 0-.964.092 2.1 2.1 0 0 0-.667.299 1.36 1.36 0 0 0-.39.411.903.903 0 0 0-.134.462c-.005.22.057.434.175.618.123.183.28.34.462.462.212.145.44.266.678.36l.79.32.265.102c.505.19 1.021.41 1.549.659.52.24 1.01.54 1.463.894a4.38 4.38 0 0 1 1.078 1.223c.288.51.433 1.088.42 1.674.002.497-.107.989-.319 1.438-.221.46-.535.87-.923 1.202a4.65 4.65 0 0 1-1.438.844 5.344 5.344 0 0 1-1.906.317 6.913 6.913 0 0 1-2.802-.502 8.354 8.354 0 0 1-2.275-1.442zm11.929-7.353v-2.879h2.257v2.879h2.522v2.22h-2.522v2.61c-.01.494.017.988.08 1.479a.743.743 0 0 0 .473.636c.233.097.617.028 1.154-.206l1.108 1.584a3.6 3.6 0 0 1-1.232.656 4.21 4.21 0 0 1-1.189.185 2.443 2.443 0 0 1-1.426-.39 2.368 2.368 0 0 1-.831-.965 2.925 2.925 0 0 1-.194-.504 4.401 4.401 0 0 1-.113-.545 7.957 7.957 0 0 1-.062-.657 15.464 15.464 0 0 1-.021-.862v-3.043h-1.128v-2.198h1.124zm6.718 4.644a4.926 4.926 0 0 1 .348-1.87c.22-.555.544-1.061.956-1.492a4.4 4.4 0 0 1 1.428-.992 4.643 4.643 0 0 1 3.589 0c.539.23 1.028.565 1.437.985.41.432.734.938.953 1.492.237.594.355 1.23.349 1.87a4.507 4.507 0 0 1-.369 1.829 4.598 4.598 0 0 1-2.442 2.425 4.427 4.427 0 0 1-3.445 0 4.598 4.598 0 0 1-2.442-2.425 4.523 4.523 0 0 1-.362-1.822zm4.534 2.404c.308.002.612-.065.891-.196.556-.25.994-.707 1.221-1.274.123-.293.186-.607.185-.925a2.681 2.681 0 0 0-.185-1.017 2.468 2.468 0 0 0-.492-.802 2.236 2.236 0 0 0-.729-.514 2.194 2.194 0 0 0-.891-.185 2.212 2.212 0 0 0-1.64.694 2.36 2.36 0 0 0-.483.793c-.12.325-.18.67-.175 1.017-.001.317.059.63.175.925.109.283.273.542.483.76.208.216.454.39.727.514.285.138.597.21.913.21zm6.798-7.051h2.177v1.459c.306-.43.699-.791 1.154-1.059a3.058 3.058 0 0 1 1.58-.4v2.261a3.119 3.119 0 0 0-.881.132c-.343.113-.658.3-.923.546a2.379 2.379 0 0 0-.73 1.202 6.305 6.305 0 0 0-.193 1.618v3.288h-2.177l-.007-9.047zm11.048-.183a4.357 4.357 0 0 1 1.724.349 4.257 4.257 0 0 1 1.435 1.005c.423.462.75 1.004.962 1.593.24.682.345 1.405.307 2.127l-.021.576h-6.623c.069.276.195.536.37.76.154.199.342.37.553.505.203.129.424.225.656.286.215.06.435.097.657.114a4.71 4.71 0 0 0 1.939-.317c.234-.094.457-.212.667-.352.191-.13.362-.256.512-.379l1.108 1.582c-.246.19-.502.383-.769.575a4.867 4.867 0 0 1-.893.504 5.69 5.69 0 0 1-1.128.35c-.486.095-.981.14-1.477.133a4.515 4.515 0 0 1-4.205-2.804 4.868 4.868 0 0 1-.369-1.921 5.387 5.387 0 0 1 .298-1.81 4.32 4.32 0 0 1 .881-1.49c.403-.44.897-.787 1.447-1.017a4.926 4.926 0 0 1 1.969-.37zm-2.308 3.93h4.431a2.127 2.127 0 0 0-.692-1.306 2.272 2.272 0 0 0-1.494-.53c-.267 0-.532.038-.789.113a2.247 2.247 0 0 0-.692.34c-.207.154-.379.35-.503.576a2.29 2.29 0 0 0-.252.802l-.009.005zm-87.551.866c-1.153 2.601-2.538 5.01-4.615 6.962-1.56 1.48-3.083 1.692-5.03.758a6.913 6.913 0 0 0-6.335.023c-1.78.874-3.462.712-4.925-.612a15.482 15.482 0 0 1-2.036-2.273 19.03 19.03 0 0 1-3.339-7.294c-.588-2.694-.665-5.387.356-8.023 1.218-3.11 4.64-5.384 7.804-5.07.923.09 1.819.462 2.726.694.627.17 1.246.4 1.885.518 1.1.207 2.13-.12 3.14-.537 2.433-1.001 4.847-1.089 7.13.372.722.463 1.331 1.099 1.991 1.653.33.278.277.481-.078.708a6.493 6.493 0 0 0-2.77 3.516c-1.077 3.205.494 6.906 3.55 8.323.182.081.346.178.547.282z"/><path fill="#fff" d="M33.208 8.078c.249 1.642-.194 3.087-1.041 4.423-1.064 1.678-2.555 2.756-4.556 3.03-.77.107-.863.02-.81-.818.167-2.473 1.357-4.323 3.434-5.634a5.917 5.917 0 0 1 2.973-1z"/></svg>