<svg xmlns="http://www.w3.org/2000/svg" width="150" height="47" fill="none"><rect width="150" height="46.084" y=".063" fill="#000" rx="8"/><path fill="#fff" d="M46.661 14.274c-.002-.52.1-1.034.3-1.512a4 4 0 0 1 .836-1.242 3.9 3.9 0 0 1 1.227-.837 3.69 3.69 0 0 1 1.493-.307 3.81 3.81 0 0 1 1.694.36c.472.226.9.532 1.267.904l-.588.851a4.152 4.152 0 0 0-1.046-.763 2.919 2.919 0 0 0-1.361-.3 2.65 2.65 0 0 0-1.085.23c-.331.144-.63.352-.88.614a2.92 2.92 0 0 0-.795 2.02 2.826 2.826 0 0 0 .796 2.007c.247.256.544.46.872.596.342.143.71.211 1.08.202.339.004.676-.049.997-.155.284-.094.55-.233.79-.412.215-.16.398-.36.537-.59.13-.211.213-.447.247-.693h-1.945v-1.04h3.09v.259a3.763 3.763 0 0 1-.3 1.542 3.493 3.493 0 0 1-2.006 1.89 4.07 4.07 0 0 1-1.444.255H50.4a3.5 3.5 0 0 1-1.45-.31 3.714 3.714 0 0 1-1.186-.839 4.05 4.05 0 0 1-.796-1.235 3.835 3.835 0 0 1-.307-1.495zm8.682 3.784v-7.562h5.146v1.052h-4.108v2.351l4.046.012v1.04h-4.034v2.056h4.096v1.051h-5.146zm5.945-6.535v-1.027h6.04v1.027h-2.48v6.524h-1.035v-6.524h-2.525zm10.52 6.535h-1.073v-7.562h1.073v7.562zm1.014-6.535v-1.027h6.04v1.027h-2.477v6.524h-1.038v-6.524h-2.525zm9.095 2.731a3.907 3.907 0 0 1 .288-1.494c.187-.458.457-.877.797-1.237a3.73 3.73 0 0 1 1.197-.837 3.746 3.746 0 0 1 2.973 0c.45.197.856.48 1.198.833.34.356.611.772.8 1.227.2.477.3.99.296 1.508a3.91 3.91 0 0 1-.289 1.5 3.808 3.808 0 0 1-.803 1.242c-.342.354-.747.64-1.195.844a3.66 3.66 0 0 1-2.968 0 3.838 3.838 0 0 1-1.999-2.086 3.875 3.875 0 0 1-.295-1.5zm3.775 2.836c.37.004.737-.075 1.074-.23.325-.15.618-.36.865-.62a2.886 2.886 0 0 0 .796-1.986 2.834 2.834 0 0 0-.796-1.968 2.933 2.933 0 0 0-.865-.608 2.533 2.533 0 0 0-1.074-.231 2.494 2.494 0 0 0-1.061.231 2.96 2.96 0 0 0-.868.615 2.872 2.872 0 0 0-.584.893 2.78 2.78 0 0 0-.212 1.075c-.001.37.071.739.212 1.082.137.333.332.64.577.904.246.26.541.471.868.62.336.151.7.228 1.069.223zm4.895.968v-7.562h1.057l3.978 5.805v-5.805h1.039v7.562h-1.039l-3.997-5.803v5.803h-1.038zM46.514 30.07a5.99 5.99 0 0 1 .461-2.356 6.082 6.082 0 0 1 3.194-3.236A5.814 5.814 0 0 1 52.512 24a5.99 5.99 0 0 1 2.716.588c.734.355 1.41.823 2 1.387l-1.285 1.782a6.141 6.141 0 0 0-1.454-1.119 4.08 4.08 0 0 0-2.037-.462 3.661 3.661 0 0 0-2.716 1.156 4.123 4.123 0 0 0-.774 4.296c.187.456.462.872.808 1.223a3.69 3.69 0 0 0 1.202.8c.464.19.96.286 1.461.284.5.01 1-.062 1.477-.21.38-.12.736-.3 1.057-.535.26-.194.484-.434.66-.707a2.03 2.03 0 0 0 .293-.738h-2.725V29.61h5.077v.643a6.094 6.094 0 0 1-.485 2.492 5.413 5.413 0 0 1-3.168 2.971 6.473 6.473 0 0 1-2.22.386h-.056a5.48 5.48 0 0 1-2.275-.478 5.74 5.74 0 0 1-1.846-1.307 6.416 6.416 0 0 1-1.24-1.921 5.976 5.976 0 0 1-.468-2.326zm12.572 1.947a4.4 4.4 0 0 1 .314-1.674 4.08 4.08 0 0 1 .854-1.334 3.977 3.977 0 0 1 1.283-.883 4.176 4.176 0 0 1 3.212 0 3.967 3.967 0 0 1 2.133 2.217 4.44 4.44 0 0 1 .311 1.674 4.018 4.018 0 0 1-.33 1.637 4.13 4.13 0 0 1-2.183 2.168 3.942 3.942 0 0 1-3.085 0 4.106 4.106 0 0 1-2.183-2.168 4.02 4.02 0 0 1-.326-1.637zm4.057 2.15a1.88 1.88 0 0 0 .799-.173c.244-.112.466-.27.653-.463a2.19 2.19 0 0 0 .605-1.516 2.472 2.472 0 0 0-.164-.911 2.315 2.315 0 0 0-.441-.708 1.983 1.983 0 0 0-1.452-.629 1.984 1.984 0 0 0-1.468.627 2.1 2.1 0 0 0-.431.708c-.107.291-.16.6-.157.91-.001.287.052.57.157.837.097.254.244.485.431.68.187.193.408.35.651.462.257.118.535.178.817.176zm4.975-2.15c-.005-.573.1-1.141.312-1.674a4.13 4.13 0 0 1 .854-1.334 3.963 3.963 0 0 1 1.285-.883 4.175 4.175 0 0 1 3.212 0c.483.207.92.507 1.286.883.367.386.657.839.854 1.334a4.44 4.44 0 0 1 .311 1.674 4.058 4.058 0 0 1-.33 1.637 4.16 4.16 0 0 1-.89 1.304 4.105 4.105 0 0 1-1.295.864 3.936 3.936 0 0 1-3.083 0 4.106 4.106 0 0 1-2.186-2.168 4.058 4.058 0 0 1-.33-1.637zm4.057 2.15c.276.001.549-.058.799-.173a2.176 2.176 0 0 0 1.257-1.977 2.423 2.423 0 0 0-.166-.91 2.2 2.2 0 0 0-.44-.708 1.983 1.983 0 0 0-1.45-.627 2.002 2.002 0 0 0-.817.167 1.948 1.948 0 0 0-.65.462c-.19.205-.336.445-.432.707-.107.292-.16.6-.157.911 0 .287.052.57.157.837.097.254.244.485.432.68.186.194.406.35.65.462.257.116.536.173.817.17zm8.793-6.436a3.71 3.71 0 0 1 1.258.195c.337.117.65.295.923.524v-.478h1.982v6.455c0 .587-.012 1.111-.037 1.572-.016.4-.072.797-.166 1.186a3.805 3.805 0 0 1-.422 1.038 3.451 3.451 0 0 1-.752.902 3.556 3.556 0 0 1-1.11.636 4.378 4.378 0 0 1-1.496.23 3.956 3.956 0 0 1-.992-.129 5.464 5.464 0 0 1-2.405-1.34l1.083-1.529c.335.274.703.507 1.093.694.375.18.786.275 1.203.275a2.2 2.2 0 0 0 1.128-.294c.347-.208.605-.538.725-.925.047-.184.078-.372.092-.561.026-.25.042-.541.056-.872a2.924 2.924 0 0 1-.924.523 3.644 3.644 0 0 1-1.248.194 3.538 3.538 0 0 1-1.505-.322 3.82 3.82 0 0 1-1.211-.874 4.056 4.056 0 0 1-.808-1.297 4.29 4.29 0 0 1-.293-1.59 4.907 4.907 0 0 1 .293-1.739c.18-.493.454-.946.808-1.334a3.56 3.56 0 0 1 2.725-1.14zm.231 6.347c.254 0 .506-.047.743-.139.234-.09.446-.227.623-.405.187-.192.334-.42.432-.67a2.46 2.46 0 0 0 .166-.939 2.533 2.533 0 0 0-.166-.948 2.122 2.122 0 0 0-.432-.693 1.828 1.828 0 0 0-.623-.423 1.963 1.963 0 0 0-.743-.148 1.842 1.842 0 0 0-1.415.626 2.263 2.263 0 0 0-.567 1.582 2.151 2.151 0 0 0 .567 1.572 1.906 1.906 0 0 0 1.406.585h.009zm7.699 1.876h-2.1v-11.77h2.11l-.01 11.77zm5.397-8.258a3.904 3.904 0 0 1 2.827 1.218c.378.41.671.89.863 1.413.216.61.31 1.256.275 1.903l-.019.515h-5.928c.062.247.174.479.33.68a1.981 1.981 0 0 0 1.082.721c.193.051.39.085.589.1a3.959 3.959 0 0 0 1.736-.296 3.27 3.27 0 0 0 .595-.312 8.43 8.43 0 0 0 .461-.34l1 1.422c-.231.17-.45.344-.693.515a4.353 4.353 0 0 1-.798.463 5.192 5.192 0 0 1-1.009.312 6.579 6.579 0 0 1-1.322.12 4.056 4.056 0 0 1-2.871-1.18 4.162 4.162 0 0 1-.9-1.342 4.385 4.385 0 0 1-.33-1.72 4.829 4.829 0 0 1 .268-1.619c.17-.492.439-.944.789-1.33.36-.393.8-.703 1.292-.908a4.416 4.416 0 0 1 1.763-.335zM92.24 31.21h3.965a1.885 1.885 0 0 0-.614-1.156 2.02 2.02 0 0 0-1.35-.462 2.396 2.396 0 0 0-.706.102c-.221.064-.43.167-.616.302a1.563 1.563 0 0 0-.448.516 1.96 1.96 0 0 0-.23.698zm11.95-7.026h4.039c.318 0 .616.016.898.027a5.27 5.27 0 0 1 1.652.336c.484.18.928.454 1.304.809.375.362.666.801.854 1.287a5.441 5.441 0 0 1 0 3.577 3.475 3.475 0 0 1-.854 1.288 3.66 3.66 0 0 1-1.304.781 5.549 5.549 0 0 1-1.652.303c-.245.014-.536.019-.873.019H106.3v3.347h-2.11V24.184zm2.11 6.29h2.744c.277-.021.551-.074.817-.157.241-.074.465-.196.66-.358.199-.167.357-.378.461-.617a2.5 2.5 0 0 0 0-1.783 1.866 1.866 0 0 0-.461-.636 2.03 2.03 0 0 0-.66-.395 2.733 2.733 0 0 0-.817-.155h-.323l-.462-.018h-1.964l.005 4.12zm10.244 5.48h-2.111v-11.77h2.111v11.77zm1.101-3.992a4.951 4.951 0 0 1 .293-1.738c.18-.493.455-.946.808-1.334.34-.366.753-.656 1.211-.853a4 4 0 0 1 2.769-.111c.338.116.651.294.924.524v-.478h1.982v7.98h-1.982v-.642c-.269.24-.583.424-.924.541-.405.136-.83.202-1.257.194a3.55 3.55 0 0 1-1.507-.321 3.876 3.876 0 0 1-1.212-.874 4.085 4.085 0 0 1-.807-1.297 4.308 4.308 0 0 1-.298-1.59zm2.056-.037a2.146 2.146 0 0 0 .57 1.572 1.904 1.904 0 0 0 1.412.58c.255.002.507-.046.743-.138.235-.089.448-.227.626-.405.188-.19.337-.417.438-.666.114-.299.17-.618.164-.938a2.577 2.577 0 0 0-.164-.948 2.117 2.117 0 0 0-.431-.694 1.945 1.945 0 0 0-1.376-.573 1.84 1.84 0 0 0-1.412.627 2.253 2.253 0 0 0-.57 1.583zm6.755-4.062h2.167l2.275 5.149 2.297-5.149h2.183l-5.396 12.138h-2.185l2.038-4.561-3.379-7.577z"/><path fill="#FF355D" d="m14 40.022 15.192-15.721 5.174 4.85-19.198 10.871H14z"/><path fill="#FBC400" d="m34.365 19.45 8.848 4.85-8.848 4.85-5.174-4.85 5.174-4.85z"/><path fill="#00FF64" d="m14.335 8.078 20.031 11.373-5.174 4.85L14.335 9.248v-1.17z"/><path fill="#4BDCFF" d="M14.335 39.69V9.25l14.857 15.053L14.335 39.69z"/></svg>